# xmcd
#
# Track frame offsets:
#	150
#	11877
#	22274
#	27871
#	38770
#	50264
#	62068
#	73868
#	85002
#	96426
#	107865
#	118601
#	131108
#	142788
#	153285
#	162732
#	173123
#	181285
#	193618
#	203310
#	213736
#	221621
#	232139
#	244711
#	255535
#	264723
#	277363
#	290360
#	301068
#
# Disc length: 4173 seconds
#
# Revision: 4
# Processed by: cddbd v1.5.2PL0 Copyright (c) Steve Scherf et al.
# Submitted via: EasyCDDAExtractor 12.0.5.1
#
DISCID=b4104b1d
DTITLE=Merle Haggard - Untamed Hawk [CD 1]
DYEAR=1995
DGENRE=Country
TTITLE0=Sing A Sad Song - 1963
TTITLE1=You Don't Even Try - 1963
TTITLE2=Life In Prison (False Start) - 1995
TTITLE3=Life In Prison - 1995
TTITLE4=You Don't Have Far To Go - 1964
TTITLE5=Sam Hill - 1995
TTITLE6=Sam Hill - 1964
TTITLE7=Please Mr. D.J. - 1964
TTITLE8=I'd Trade All Of My Tomorrows - 1965
TTITLE9=(My Friends Are Gonna Be) Strangers - 1964
TTITLE10=Slowly But Surely (& Bonnie Owens) - 1964
TTITLE11=Just Between The Two Of Us (& Bonnie Owens) - 1965
TTITLE12=So Much For Me So Much For You (& Bonnie Owens) - 1965
TTITLE13=Falling For You - 1965
TTITLE14=I Wanta Live Again - 1965
TTITLE15=A House Without Love Is Not A Home - 1965
TTITLE16=Walking The Floor Over You - 1965
TTITLE17=The Worst Is Yet To Come - 1965
TTITLE18=Piedras Negras (Go Home) - 1965
TTITLE19=Singin' My Heart Out - 1962
TTITLE20=Skid Row - 1962
TTITLE21=Falling For You (Without String Overdub) - 1995
TTITLE22=I'd Trade All Of My Tomorrows (Without String Overdub) - 1995
TTITLE23=If I Had Left It Up To You - 1965
TTITLE24=I'm Gonna Break Every Heart I Can - 1965
TTITLE25=Stranger In My Arms (& Bonnie Owens) - 1965
TTITLE26=If I Could Be Him - 1966
TTITLE27=Shade Tree (Fix-It-Man) - 1966
TTITLE28=This Town's Not Big Enough - 1966
EXTD=
EXTT0=
EXTT1=
EXTT2=
EXTT3=
EXTT4=
EXTT5=
EXTT6=
EXTT7=
EXTT8=
EXTT9=
EXTT10=
EXTT11=
EXTT12=
EXTT13=
EXTT14=
EXTT15=
EXTT16=
EXTT17=
EXTT18=
EXTT19=
EXTT20=
EXTT21=
EXTT22=
EXTT23=
EXTT24=
EXTT25=
EXTT26=
EXTT27=
EXTT28=
PLAYORDER=
